<svg width="652pt" height="227pt" viewBox="0 0 652 227" xmlns="http://www.w3.org/2000/svg"><g id="fontsvg1667727447098" stroke-linecap="round" fill-rule="evenodd" fill="#000000"><path d="M 118.222 27.145 L 115.972 31.395 L 114.222 33.645 Q 113.159 34.708 108.298 44.994 A 636.973 636.973 0 0 0 106.472 48.895 Q 101.222 58.895 95.722 68.645 A 1200.021 1200.021 0 0 0 92.593 74.505 Q 86.58 85.846 84.85 89.846 A 33.341 33.341 0 0 0 84.722 90.145 A 104.282 104.282 0 0 0 91.671 85.985 Q 97.784 82.02 104.972 76.395 A 1112.127 1112.127 0 0 1 112.574 70.589 Q 127.847 59.036 132.722 56.395 Q 137.914 53.583 140.392 52.642 A 13.249 13.249 0 0 1 141.097 52.395 Q 143.472 51.645 145.722 52.02 A 20.678 20.678 0 0 1 148.332 52.64 A 26.576 26.576 0 0 1 150.472 53.395 L 156.722 55.895 Q 161.934 57.632 162.996 67.293 A 44.859 44.859 0 0 1 163.222 70.395 A 53.976 53.976 0 0 1 163.233 71.496 Q 163.233 79.122 161.004 84.316 A 18.269 18.269 0 0 1 158.222 88.895 A 139.948 139.948 0 0 1 138.788 109.646 A 98.908 98.908 0 0 1 106.972 128.395 Q 98.222 131.645 88.972 133.895 A 27.655 27.655 0 0 1 100.921 138.359 Q 107.753 142.77 114.222 151.395 A 97.01 97.01 0 0 1 124.109 167.517 A 81.485 81.485 0 0 1 128.347 178.145 A 913.724 913.724 0 0 0 130.417 184.575 Q 133.329 193.498 135.2 198.461 A 133.31 133.31 0 0 0 135.222 198.52 A 50.127 50.127 0 0 1 136.273 201.581 Q 137.597 205.924 137.359 208.636 A 8.556 8.556 0 0 1 137.347 208.77 A 6.302 6.302 0 0 1 134.551 213.419 A 10.117 10.117 0 0 1 133.097 214.27 Q 130.019 215.759 123.552 217.169 A 132.19 132.19 0 0 1 119.972 217.895 Q 115.722 218.645 102.472 207.895 Q 96.722 203.145 90.222 197.52 Q 83.722 191.895 77.222 186.895 Q 64.692 177.08 58.442 175.115 A 10.371 10.371 0 0 0 56.222 174.645 Q 55.722 174.645 54.222 174.145 L 49.722 185.395 A 787.295 787.295 0 0 0 44.401 198.262 A 901.738 901.738 0 0 0 42.597 202.77 A 86.704 86.704 0 0 1 37.105 214.185 A 73.885 73.885 0 0 1 33.972 219.145 A 25.733 25.733 0 0 1 19.252 223.555 Q 17.645 223.558 15.972 223.395 A 27.785 27.785 0 0 1 9.995 222.138 Q 3.167 219.825 0.472 213.895 Q -2.028 206.145 8.722 168.395 A 6118.401 6118.401 0 0 0 13.878 149.434 Q 15.909 141.915 17.745 135.03 A 3495.447 3495.447 0 0 0 21.222 121.895 A 2545.937 2545.937 0 0 1 23.753 112.325 Q 27.166 99.524 29.844 90.095 A 867.229 867.229 0 0 1 30.222 88.77 Q 33.972 75.645 35.722 68.27 Q 37.472 60.895 39.222 53.895 A 175.015 175.015 0 0 1 43.075 41.074 Q 45.192 34.943 47.591 29.752 A 94.304 94.304 0 0 1 49.222 26.395 Q 53.972 14.895 62.722 18.145 A 53.039 53.039 0 0 1 63.859 15.787 Q 65.599 12.413 66.998 11.227 A 4.431 4.431 0 0 1 67.097 11.145 A 18.134 18.134 0 0 1 69.734 9.378 A 15.811 15.811 0 0 1 70.972 8.77 A 731.568 731.568 0 0 0 73.034 7.864 A 876.183 876.183 0 0 0 75.222 6.895 Q 77.472 5.895 82.222 5.145 A 68.641 68.641 0 0 1 87.222 4.551 A 89.808 89.808 0 0 1 92.722 4.27 A 75.704 75.704 0 0 1 94.367 4.252 A 78.743 78.743 0 0 1 104.347 4.895 A 29.818 29.818 0 0 1 109.089 5.875 Q 111.687 6.649 113.792 7.885 A 18.167 18.167 0 0 1 114.222 8.145 A 14.402 14.402 0 0 1 117.771 11.011 Q 122.763 16.697 118.472 26.645 A 1.414 1.414 0 0 1 118.529 26.618 Q 118.925 26.442 118.222 27.145 Z M 398.222 26.145 L 395.972 33.395 A 91.156 91.156 0 0 0 397.946 35.657 Q 398.88 36.689 399.727 37.549 A 41.742 41.742 0 0 0 400.847 38.645 A 6.642 6.642 0 0 1 402.427 41.014 Q 403.089 42.637 403.222 44.895 A 1.888 1.888 0 0 1 403.354 45.468 Q 403.745 49.778 392.199 70.068 A 476.636 476.636 0 0 1 390.722 72.645 A 2790.223 2790.223 0 0 1 381.745 88.137 A 3183.574 3183.574 0 0 1 378.597 93.52 A 322.974 322.974 0 0 0 374.149 101.342 Q 372.007 105.243 370.227 108.78 A 174.214 174.214 0 0 0 368.222 112.895 Q 371.222 112.145 374.222 111.645 A 76.767 76.767 0 0 0 380.222 110.395 Q 396.181 106.297 403.21 105.642 A 27.578 27.578 0 0 1 405.222 105.52 A 51.322 51.322 0 0 1 406.208 105.511 Q 410.68 105.511 414.027 106.322 A 20.002 20.002 0 0 1 415.972 106.895 A 26.977 26.977 0 0 1 421.271 109.616 Q 427.604 113.9 427.972 120.895 Q 424.818 128.33 406.032 141.042 A 262.497 262.497 0 0 1 401.722 143.895 Q 397.025 146.802 393.929 148.909 A 107.812 107.812 0 0 0 393.222 149.395 L 371.472 164.895 Q 369.722 167.645 368.972 170.145 L 368.972 170.395 A 1.685 1.685 0 0 0 369.444 170.987 Q 370.751 172.135 375.347 173.895 A 592.571 592.571 0 0 1 379.524 175.512 Q 381.17 176.157 382.657 176.753 A 319.335 319.335 0 0 1 385.472 177.895 Q 395.472 182.395 403.222 190.145 A 10.777 10.777 0 0 1 405.047 192.993 Q 405.655 194.341 406.051 196.006 A 24.292 24.292 0 0 1 406.472 198.27 Q 407.222 203.645 404.847 208.145 Q 402.475 212.639 396.489 214.64 A 21.847 21.847 0 0 1 396.472 214.645 A 13.397 13.397 0 0 1 393.715 215.235 Q 389.565 215.697 383.75 214.143 A 56.715 56.715 0 0 1 379.722 212.895 A 61.499 61.499 0 0 1 369.453 206.932 Q 359.526 199.951 347.753 187.434 A 266.644 266.644 0 0 1 342.472 181.645 Q 339.972 190.395 337.597 198.77 Q 335.222 207.145 332.472 215.895 A 12.367 12.367 0 0 1 324.738 222.734 Q 320.74 224.102 314.996 223.896 A 43.623 43.623 0 0 1 314.972 223.895 A 23.097 23.097 0 0 1 309.14 223.183 A 19.592 19.592 0 0 1 305.097 221.645 A 12.797 12.797 0 0 1 302.716 220.092 Q 300.487 218.223 299.972 215.645 Q 298.433 211.414 298.078 208.884 A 9.914 9.914 0 0 1 297.972 207.52 A 13.592 13.592 0 0 1 298.178 205.243 Q 298.48 203.473 299.222 201.395 A 221.344 221.344 0 0 0 302.261 193.304 Q 304.972 185.6 306.132 180.04 A 53.744 53.744 0 0 0 306.472 178.27 A 510.711 510.711 0 0 1 306.999 175.286 Q 308.065 169.364 308.472 168.145 A 17.424 17.424 0 0 1 301.164 158.31 A 25.884 25.884 0 0 1 300.222 153.895 A 23.954 23.954 0 0 1 299.923 150.403 Q 299.847 142.989 304.722 136.895 A 669.396 669.396 0 0 0 308.44 135.489 Q 313.34 133.618 315.954 132.509 A 78.831 78.831 0 0 0 316.222 132.395 A 123.712 123.712 0 0 1 318.46 121.556 A 162.699 162.699 0 0 1 321.222 111.895 A 629.288 629.288 0 0 0 325.505 97.821 Q 327.525 90.875 329.107 84.73 A 314.475 314.475 0 0 0 330.847 77.645 A 262.475 262.475 0 0 1 334.374 64.216 Q 336.352 57.384 338.863 49.862 A 459.728 459.728 0 0 1 340.597 44.77 Q 346.972 26.395 351.972 7.645 A 22.324 22.324 0 0 1 356.912 3.084 A 17.934 17.934 0 0 1 365.222 0.145 A 30.935 30.935 0 0 1 368.203 0 A 30.079 30.079 0 0 1 380.222 2.52 Q 387.472 5.645 392.597 12.02 A 25.412 25.412 0 0 1 397.364 21.093 A 24.354 24.354 0 0 1 398.222 26.145 Z M 502.845 169.418 A 61.462 61.462 0 0 0 508.972 166.895 A 89.368 89.368 0 0 0 514.4 163.898 Q 518.658 161.341 522.036 158.589 A 43.166 43.166 0 0 0 528.722 151.895 A 29.997 29.997 0 0 0 530.885 148.614 Q 534.298 142.673 536.92 132.939 A 146.876 146.876 0 0 0 539.222 122.895 Q 541.472 107.145 537.722 98.395 A 36.818 36.818 0 0 0 537.394 97.694 Q 529.803 81.884 510.722 81.395 A 85.753 85.753 0 0 0 508.373 81.363 A 81.364 81.364 0 0 0 475.722 88.145 Q 461.222 94.395 449.472 108.395 A 190.135 190.135 0 0 0 444.83 114.111 Q 439.985 120.327 436.285 126.227 A 98.883 98.883 0 0 0 429.722 138.395 Q 415.972 168.395 422.472 190.895 Q 427.472 207.895 444.472 213.645 A 37.093 37.093 0 0 0 450.247 215.639 Q 461.24 218.505 478.722 217.145 Q 488.722 216.395 498.722 214.395 A 119.983 119.983 0 0 0 499.344 214.269 Q 508.956 212.294 516.222 209.145 A 44.072 44.072 0 0 0 519.252 207.698 Q 521.63 206.444 523.516 205.032 A 21.194 21.194 0 0 0 527.347 201.395 A 11.315 11.315 0 0 0 528.571 199.548 Q 530.49 195.88 528.597 191.895 Q 526.222 186.895 524.972 186.145 A 7.179 7.179 0 0 0 524.42 185.845 Q 523.999 185.64 523.61 185.529 A 3.229 3.229 0 0 0 522.722 185.395 A 3.031 3.031 0 0 1 522.108 185.33 Q 521.352 185.173 520.472 184.645 Q 519.456 184.036 517.945 180.951 A 46.373 46.373 0 0 1 517.222 179.395 Q 512.485 175.132 507.187 175.132 A 13.295 13.295 0 0 0 506.597 175.145 A 40.394 40.394 0 0 0 503.413 175.414 A 45.966 45.966 0 0 0 495.097 177.27 Q 489.222 179.145 483.847 181.27 Q 479.874 182.841 476.379 182.841 A 14.62 14.62 0 0 1 473.972 182.645 A 55.968 55.968 0 0 1 472.881 182.065 Q 468.769 179.816 467.257 178.001 A 3.95 3.95 0 0 1 466.472 176.645 Q 473.472 176.145 489.222 172.895 A 233.346 233.346 0 0 0 490.88 172.544 Q 495.855 171.469 499.722 170.395 A 51.528 51.528 0 0 0 502.845 169.418 Z M 196.378 199.083 A 71.428 71.428 0 0 0 198.097 194.145 A 110.043 110.043 0 0 0 198.312 193.441 Q 199.821 188.447 201.222 182.145 Q 202.159 177.926 203.487 172.829 A 415.292 415.292 0 0 1 205.222 166.395 A 1296.134 1296.134 0 0 1 224.82 101.406 A 1011.568 1011.568 0 0 1 252.972 26.145 Q 253.342 22.254 250.279 17.675 A 31.038 31.038 0 0 0 247.722 14.395 A 76.804 76.804 0 0 1 246.105 12.35 A 64.273 64.273 0 0 1 243.722 9.02 A 8.95 8.95 0 0 1 242.19 3.948 A 10.464 10.464 0 0 1 242.222 3.145 A 30.868 30.868 0 0 0 238.575 2.163 Q 228.191 0.066 220.722 6.895 A 32.206 32.206 0 0 0 219.762 7.751 A 28.09 28.09 0 0 0 214.972 13.52 A 102.872 102.872 0 0 1 213.598 15.676 Q 212.168 17.857 210.972 19.395 A 456.318 456.318 0 0 0 192.48 55.29 A 548.719 548.719 0 0 0 166.972 122.145 A 733.096 733.096 0 0 0 160.159 144.676 A 543.115 543.115 0 0 0 154.722 165.27 A 1084.96 1084.96 0 0 1 151.826 176.962 Q 148.722 189.192 145.972 198.645 A 33.724 33.724 0 0 0 145.672 200.124 Q 144.925 204.314 145.665 206.967 A 5.67 5.67 0 0 0 148.972 210.895 A 13.892 13.892 0 0 0 149.8 211.276 A 15.25 15.25 0 0 0 153.347 212.27 Q 155.722 212.645 156.472 215.145 A 11.851 11.851 0 0 0 156.763 217.251 Q 158.244 223.464 166.707 222.219 A 26.426 26.426 0 0 0 168.472 221.895 A 36.301 36.301 0 0 0 173.761 220.108 A 49.518 49.518 0 0 0 178.972 217.52 A 66.777 66.777 0 0 0 183.497 214.714 A 51.346 51.346 0 0 0 188.472 210.895 A 29.291 29.291 0 0 0 191.392 207.969 A 22.324 22.324 0 0 0 194.472 203.395 A 52.401 52.401 0 0 0 196.378 199.083 Z M 559.722 131.145 L 568.222 100.395 A 36.252 36.252 0 0 1 571.65 93.636 A 25.922 25.922 0 0 1 578.097 86.77 A 40.591 40.591 0 0 1 583.097 83.64 Q 586.813 81.697 590.347 81.02 Q 594.196 80.283 597.186 81.102 A 10.4 10.4 0 0 1 600.097 82.395 Q 603.551 84.624 602.933 89.037 A 11.932 11.932 0 0 1 602.722 90.145 Q 606.296 86.571 612.276 83.422 A 70.162 70.162 0 0 1 616.472 81.395 A 213.902 213.902 0 0 1 620.737 79.551 Q 626.784 77.02 630.722 75.895 A 47.977 47.977 0 0 1 634.301 75.011 Q 637.319 74.395 639.722 74.395 A 11.483 11.483 0 0 1 641.943 74.728 Q 647.404 76.167 644.514 83.292 A 21.36 21.36 0 0 1 644.472 83.395 A 7.643 7.643 0 0 1 649.7 86.948 A 12.244 12.244 0 0 1 650.722 88.895 A 14.679 14.679 0 0 1 651.865 94.65 Q 651.865 96.218 651.561 97.873 A 21.199 21.199 0 0 1 651.222 99.395 Q 649.722 105.145 644.472 110.645 A 24.672 24.672 0 0 1 636.257 116.256 A 33.645 33.645 0 0 1 630.347 118.145 Q 621.472 120.145 615.597 127.27 A 61.976 61.976 0 0 0 609.904 135.515 Q 607.401 139.809 605.222 144.895 A 141.159 141.159 0 0 0 600.681 157.429 Q 596.526 170.64 592.896 188.999 A 493.824 493.824 0 0 0 591.722 195.145 A 23.315 23.315 0 0 1 585.596 207.177 Q 581.706 211.395 575.472 214.895 A 47.793 47.793 0 0 1 568.495 218.222 Q 562.812 220.355 557.566 220.355 A 24.536 24.536 0 0 1 550.722 219.395 Q 538.391 216.01 539.388 201.636 A 34.552 34.552 0 0 1 539.472 200.645 Q 539.923 190.934 544.863 175.41 A 225.845 225.845 0 0 1 545.972 172.02 Q 550.565 158.335 553.547 149.778 A 743.409 743.409 0 0 1 555.222 145.02 A 371.937 371.937 0 0 0 556.722 140.731 Q 558.784 134.708 559.722 131.145 Z M 270.972 84.395 A 38.246 38.246 0 0 0 267.374 85.457 Q 258.215 88.68 255.472 95.645 A 74.304 74.304 0 0 0 254.594 97.01 Q 250.028 104.277 245.267 115.379 A 271.865 271.865 0 0 0 240.472 127.395 A 646.461 646.461 0 0 0 239.013 131.199 Q 228.942 157.725 223.918 178.173 A 199.004 199.004 0 0 0 220.222 196.645 Q 215.972 210.895 222.972 219.395 Q 225.972 222.895 230.222 224.77 A 25.91 25.91 0 0 0 232.602 225.686 A 21.23 21.23 0 0 0 238.597 226.77 A 22.555 22.555 0 0 0 239.28 226.781 Q 243.013 226.781 246.222 225.52 A 11.88 11.88 0 0 0 248.303 224.47 A 8.435 8.435 0 0 0 251.222 221.395 Q 252.722 218.645 258.222 218.395 Q 260.472 218.145 262.972 217.645 Q 270.081 216.223 273.89 201.103 A 96.949 96.949 0 0 0 275.472 193.395 A 67.63 67.63 0 0 1 275.585 192.408 Q 277.316 178.225 286.972 145.395 Q 290.722 132.145 294.847 119.52 Q 298.972 106.895 301.722 98.145 A 15.343 15.343 0 0 0 301.732 98.045 Q 302.451 91.167 296.557 87.227 A 21.213 21.213 0 0 0 292.472 85.145 A 32.694 32.694 0 0 0 280.898 83.062 Q 279.393 83.062 277.859 83.192 A 41.027 41.027 0 0 0 270.972 84.395 Z M 302.722 58.145 Q 290.472 60.645 282.847 56.645 A 26.495 26.495 0 0 1 279.062 54.267 Q 277.164 52.816 275.941 51.193 A 10.777 10.777 0 0 1 273.972 47.02 A 10.848 10.848 0 0 1 273.711 44.66 Q 273.711 40.731 276.56 36.623 A 24.168 24.168 0 0 1 277.472 35.395 A 23.559 23.559 0 0 1 287.489 27.625 A 33.841 33.841 0 0 1 293.972 25.645 A 181.599 181.599 0 0 1 296.3 25.426 Q 299.534 25.145 301.222 25.145 Q 302.855 25.145 305.014 25.672 A 29.947 29.947 0 0 1 306.722 26.145 A 17.023 17.023 0 0 1 310.907 27.022 A 10.489 10.489 0 0 1 317.472 33.395 Q 320.972 38.895 318.097 45.895 A 14.891 14.891 0 0 1 314.787 50.7 Q 311.336 54.172 305.026 57.124 A 63.061 63.061 0 0 1 302.722 58.145 Z M 476.478 136.885 A 44.614 44.614 0 0 0 473.722 142.395 Q 471.472 147.145 470.222 152.395 A 12.706 12.706 0 0 0 471.708 152.482 Q 479.256 152.482 487.577 143.596 A 55.619 55.619 0 0 0 488.222 142.895 Q 491.722 138.645 493.472 134.27 A 22.6 22.6 0 0 0 494.118 132.446 Q 495.058 129.348 494.472 127.395 Q 483.506 125.119 476.478 136.885 Z" vector-effect="non-scaling-stroke"/></g></svg>